<svg id="Component_615_1" data-name="Component 615 – 1" xmlns="http://www.w3.org/2000/svg" width="24" height="24" viewBox="0 0 24 24">
  <g id="calendar_7_" data-name="calendar (7)">
    <g id="Group_68142" data-name="Group 68142" transform="translate(5.143)">
      <g id="Group_68141" data-name="Group 68141">
        <path id="Path_102227" data-name="Path 102227" d="M103.257,0a.857.857,0,0,0-.857.857V2.571h1.714V.857A.857.857,0,0,0,103.257,0Z" transform="translate(-102.4)" fill="#4f4f4f"/>
      </g>
    </g>
    <g id="Group_68144" data-name="Group 68144" transform="translate(17.143)">
      <g id="Group_68143" data-name="Group 68143">
        <path id="Path_102228" data-name="Path 102228" d="M342.19,0a.857.857,0,0,0-.857.857V2.571h1.714V.857A.857.857,0,0,0,342.19,0Z" transform="translate(-341.333)" fill="#4f4f4f"/>
      </g>
    </g>
    <g id="Group_68146" data-name="Group 68146" transform="translate(0 2.571)">
      <g id="Group_68145" data-name="Group 68145">
        <path id="Path_102229" data-name="Path 102229" d="M21.429,51.2H18.857v3.429a.857.857,0,1,1-1.714,0V51.2H6.857v3.429a.857.857,0,0,1-1.714,0V51.2H2.571A2.571,2.571,0,0,0,0,53.771V70.057a2.571,2.571,0,0,0,2.571,2.571H21.429A2.571,2.571,0,0,0,24,70.057V53.771A2.571,2.571,0,0,0,21.429,51.2Zm.857,18.857a.857.857,0,0,1-.857.857H2.571a.857.857,0,0,1-.857-.857V58.914H22.286Z" transform="translate(0 -51.2)" fill="#4f4f4f"/>
      </g>
    </g>
    <g id="Group_68148" data-name="Group 68148" transform="translate(4.286 12)">
      <g id="Group_68147" data-name="Group 68147">
        <path id="Path_102230" data-name="Path 102230" d="M87.9,238.933H86.19a.857.857,0,1,0,0,1.714H87.9a.857.857,0,0,0,0-1.714Z" transform="translate(-85.333 -238.933)" fill="#4f4f4f"/>
      </g>
    </g>
    <g id="Group_68150" data-name="Group 68150" transform="translate(10.286 12)">
      <g id="Group_68149" data-name="Group 68149">
        <path id="Path_102231" data-name="Path 102231" d="M207.371,238.933h-1.714a.857.857,0,1,0,0,1.714h1.714a.857.857,0,0,0,0-1.714Z" transform="translate(-204.8 -238.933)" fill="#4f4f4f"/>
      </g>
    </g>
    <g id="Group_68152" data-name="Group 68152" transform="translate(16.286 12)">
      <g id="Group_68151" data-name="Group 68151">
        <path id="Path_102232" data-name="Path 102232" d="M326.838,238.933h-1.714a.857.857,0,1,0,0,1.714h1.714a.857.857,0,0,0,0-1.714Z" transform="translate(-324.267 -238.933)" fill="#4f4f4f"/>
      </g>
    </g>
    <g id="Group_68154" data-name="Group 68154" transform="translate(4.286 15.429)">
      <g id="Group_68153" data-name="Group 68153">
        <path id="Path_102233" data-name="Path 102233" d="M87.9,307.2H86.19a.857.857,0,1,0,0,1.714H87.9a.857.857,0,0,0,0-1.714Z" transform="translate(-85.333 -307.2)" fill="#4f4f4f"/>
      </g>
    </g>
    <g id="Group_68156" data-name="Group 68156" transform="translate(10.286 15.429)">
      <g id="Group_68155" data-name="Group 68155">
        <path id="Path_102234" data-name="Path 102234" d="M207.371,307.2h-1.714a.857.857,0,1,0,0,1.714h1.714a.857.857,0,1,0,0-1.714Z" transform="translate(-204.8 -307.2)" fill="#4f4f4f"/>
      </g>
    </g>
    <g id="Group_68158" data-name="Group 68158" transform="translate(16.286 15.429)">
      <g id="Group_68157" data-name="Group 68157">
        <path id="Path_102235" data-name="Path 102235" d="M326.838,307.2h-1.714a.857.857,0,1,0,0,1.714h1.714a.857.857,0,0,0,0-1.714Z" transform="translate(-324.267 -307.2)" fill="#4f4f4f"/>
      </g>
    </g>
    <g id="Group_68160" data-name="Group 68160" transform="translate(4.286 18.857)">
      <g id="Group_68159" data-name="Group 68159">
        <path id="Path_102236" data-name="Path 102236" d="M87.9,375.467H86.19a.857.857,0,1,0,0,1.714H87.9a.857.857,0,1,0,0-1.714Z" transform="translate(-85.333 -375.467)" fill="#4f4f4f"/>
      </g>
    </g>
    <g id="Group_68162" data-name="Group 68162" transform="translate(10.286 18.857)">
      <g id="Group_68161" data-name="Group 68161">
        <path id="Path_102237" data-name="Path 102237" d="M207.371,375.467h-1.714a.857.857,0,1,0,0,1.714h1.714a.857.857,0,1,0,0-1.714Z" transform="translate(-204.8 -375.467)" fill="#4f4f4f"/>
      </g>
    </g>
    <g id="Group_68164" data-name="Group 68164" transform="translate(16.286 18.857)">
      <g id="Group_68163" data-name="Group 68163">
        <path id="Path_102238" data-name="Path 102238" d="M326.838,375.467h-1.714a.857.857,0,1,0,0,1.714h1.714a.857.857,0,0,0,0-1.714Z" transform="translate(-324.267 -375.467)" fill="#4f4f4f"/>
      </g>
    </g>
  </g>
  <g id="Group_69077" data-name="Group 69077" transform="translate(-1050 -522)">
    <g id="Group_69072" data-name="Group 69072" transform="translate(248 39)">
      <g id="Group_69070" data-name="Group 69070" transform="translate(-3 -38)">
        <g id="Group_69066" data-name="Group 69066" transform="translate(63)">
          <g id="Group_69064" data-name="Group 69064" transform="translate(22)">
            <g id="Group_69062" data-name="Group 69062" transform="translate(22)">
              <g id="Group_69060" data-name="Group 69060" transform="translate(17 17)">
                <g id="Group_69058" data-name="Group 69058" transform="translate(21 20)">
                  <g id="Group_69045" data-name="Group 69045" transform="translate(722 202) rotate(90)">
                    <rect id="Rectangle_8228" data-name="Rectangle 8228" width="24" height="24" transform="translate(282 38)" fill="none"/>
                  </g>
                </g>
              </g>
            </g>
          </g>
        </g>
      </g>
    </g>
  </g>
</svg>
