<svg xmlns="http://www.w3.org/2000/svg" width="76.282" height="71.26" viewBox="0 0 76.282 71.26">
  <g id="Group_68389" data-name="Group 68389" transform="translate(-8.541 -40.422)">
    <g id="Background_Simple" data-name="Background Simple" transform="translate(8.573 40.913)">
      <g id="Group_68389-2" data-name="Group 68389" transform="translate(0 0)">
        <path id="Path_102243" data-name="Path 102243" d="M84.634,83.634A36.721,36.721,0,0,0,58.551,45.685c-19.964-6.021-27.411-.951-32.64,5.387s-.317,17.112-6.338,21.549S6.264,83.4,9.274,92.743,19.732,108.271,26.7,107.637s14.26-8.873,19.172-3.486,20.6,10.616,30.9,1.584C82.277,100.909,84.115,91.422,84.634,83.634Z" transform="translate(-8.573 -42.989)" fill="#4cb1ff" stroke="rgba(0,0,0,0)" stroke-width="0.2"/>
        <path id="Path_102244" data-name="Path 102244" d="M84.634,83.634A36.721,36.721,0,0,0,58.551,45.685c-19.964-6.021-27.411-.951-32.64,5.387s-.317,17.112-6.338,21.549S6.264,83.4,9.274,92.743,19.732,108.271,26.7,107.637s14.26-8.873,19.172-3.486,20.6,10.616,30.9,1.584C82.277,100.909,84.115,91.422,84.634,83.634Z" transform="translate(-8.573 -42.989)" fill="#fff" stroke="rgba(0,0,0,0)" stroke-width="0.2" opacity="0.7"/>
      </g>
    </g>
    <g id="Plants" transform="translate(27.089 42.229)">
      <g id="Group_68390" data-name="Group 68390" transform="translate(28.794 29.27)">
        <path id="Path_102245" data-name="Path 102245" d="M431.005,312.6a7.306,7.306,0,0,0-1.914.97c-.013.009.814.651.871.685.658.4,2.164.784,2.816.22a1.02,1.02,0,0,0-.015-1.518A2.132,2.132,0,0,0,431.005,312.6Z" transform="translate(-409.771 -300.433)" fill="#4cb1ff" stroke="rgba(0,0,0,0)" stroke-width="0.2"/>
        <path id="Path_102246" data-name="Path 102246" d="M325.556,244.814a7.093,7.093,0,0,0-1.576,1.425,18.086,18.086,0,0,0-1.926-1.448c-.391-.258-.793-.506-1.2-.749.2.083.383.157.409.164.74.211,2.295.185,2.774-.531a1.02,1.02,0,0,0-.415-1.46,2.132,2.132,0,0,0-1.79.12,6.761,6.761,0,0,0-1.536,1.379c-.157-.092-.312-.185-.469-.276-.753-.437-1.507-.871-2.233-1.318-.256-.158-.5-.322-.75-.486.18.074.331.135.355.142.74.211,2.294.185,2.774-.532a1.02,1.02,0,0,0-.415-1.46,2.132,2.132,0,0,0-1.79.12,6.505,6.505,0,0,0-1.5,1.336c-.248-.175-.5-.351-.729-.532-.156-.127-.315-.239-.464-.376l-.448-.392c-.276-.26-.562-.526-.824-.786-.184-.18-.356-.354-.53-.53.253.16.755.463.8.483.7.321,2.24.53,2.822-.105a1.02,1.02,0,0,0-.189-1.506,2.132,2.132,0,0,0-1.788-.153,7.01,7.01,0,0,0-1.765,1.162c-.286-.291-.562-.577-.818-.851-.566-.6-1.057-1.155-1.465-1.628l-.473.309c.433.482.958,1.049,1.569,1.672.29.3.605.608.932.925a11.1,11.1,0,0,0-.683,1.109,7.454,7.454,0,0,0-2.044.013c-.078-.4-.151-.792-.213-1.161-.132-.773-.233-1.47-.311-2.067l-.511.334c.085.542.19,1.154.32,1.824.078.407.169.841.267,1.285a7.015,7.015,0,0,0-1.853,1.016,2.134,2.134,0,0,0-.7,1.652,1.02,1.02,0,0,0,1.243.871c.834-.218,1.37-1.677,1.413-2.445,0-.045-.025-.54-.047-.852.041.181.079.358.123.544.085.369.182.735.284,1.128l.169.571c.053.192.133.388.2.584.163.451.349.9.547,1.349a6.7,6.7,0,0,0-1.925.71,2.132,2.132,0,0,0-.943,1.526,1.02,1.02,0,0,0,1.1,1.05c.857-.089,1.608-1.45,1.767-2.2.01-.047.064-.6.087-.9.121.269.241.537.372.805.379.773.787,1.544,1.19,2.315.124.236.244.473.366.709a7.087,7.087,0,0,0-2,.726,2.132,2.132,0,0,0-.943,1.526,1.02,1.02,0,0,0,1.1,1.05c.857-.089,1.608-1.45,1.767-2.2.012-.057.088-.853.1-1.056.267.521.529,1.043.766,1.567a17.953,17.953,0,0,1,.83,2.177,7.2,7.2,0,0,0-2.008.729,2.133,2.133,0,0,0-.943,1.526,1.02,1.02,0,0,0,1.1,1.05c.858-.089,1.608-1.45,1.767-2.2.012-.059.094-.916.1-1.072.013.043.031.087.044.13a13.153,13.153,0,0,1,.425,2.3c.046.428.066.84.076,1.242a6.862,6.862,0,0,0-2.027.5,2.132,2.132,0,0,0-1.105,1.414,1.02,1.02,0,0,0,.974,1.164c.862.006,1.757-1.265,2-2,.013-.04.1-.458.162-.764,0,.181.007.368.006.542,0,.652-.049,1.248-.092,1.777-.027.3-.058.571-.089.824a6.821,6.821,0,0,0-1.56,1.37,2.132,2.132,0,0,0-.329,1.764,1.02,1.02,0,0,0,1.4.584c.768-.392.977-1.932.854-2.692-.011-.066-.295-1.073-.308-1.065l-.015.01c.035-.243.07-.5.1-.79.055-.528.112-1.125.131-1.78a18.083,18.083,0,0,0-.04-2.114,13.326,13.326,0,0,0-.38-2.334c0-.009-.006-.018-.009-.027.135.214.531.8.566.84.5.585,1.812,1.42,2.607,1.087a1.02,1.02,0,0,0,.459-1.447,2.133,2.133,0,0,0-1.559-.888,7.105,7.105,0,0,0-2.1.319,18.1,18.1,0,0,0-.807-2.27c-.184-.431-.382-.859-.586-1.286.122.181.233.342.251.363.5.585,1.811,1.42,2.607,1.087a1.02,1.02,0,0,0,.459-1.447,2.132,2.132,0,0,0-1.559-.888,6.767,6.767,0,0,0-2.042.3c-.08-.163-.158-.327-.239-.489-.387-.781-.777-1.558-1.136-2.332-.127-.273-.241-.546-.357-.819.109.161.2.3.218.314.5.585,1.812,1.42,2.607,1.087a1.02,1.02,0,0,0,.459-1.447,2.131,2.131,0,0,0-1.559-.887,6.5,6.5,0,0,0-1.987.288c-.11-.283-.221-.566-.315-.846-.06-.192-.131-.373-.18-.569l-.157-.574c-.087-.369-.178-.749-.253-1.11-.054-.251-.1-.492-.15-.734.123.273.375.8.4.844a3.961,3.961,0,0,0,1.5,1.322,1.194,1.194,0,0,0,.135.181,1.02,1.02,0,0,0,1.517.041c.576-.642.217-2.154-.171-2.819-.023-.039-.319-.437-.509-.685.135.129.263.255.4.386.275.26.557.512.859.784l.457.382c.149.131.324.25.487.377.385.287.788.559,1.2.823a6.7,6.7,0,0,0-1.214,1.654,2.133,2.133,0,0,0,.055,1.793,1.02,1.02,0,0,0,1.494.271c.666-.547.541-2.1.259-2.812-.018-.045-.278-.536-.426-.8.249.157.5.315.755.466.743.436,1.508.854,2.27,1.274.234.129.464.26.7.39a7.091,7.091,0,0,0-1.264,1.707,2.132,2.132,0,0,0,.055,1.793,1.02,1.02,0,0,0,1.494.271c.666-.547.541-2.1.259-2.812-.021-.054-.4-.76-.5-.935.51.287,1.016.578,1.5.885a17.978,17.978,0,0,1,1.894,1.357,7.2,7.2,0,0,0-1.272,1.716,2.131,2.131,0,0,0,.055,1.793,1.02,1.02,0,0,0,1.493.271c.666-.547.541-2.1.259-2.812-.022-.056-.427-.816-.51-.948.035.029.074.055.108.084a13.159,13.159,0,0,1,1.621,1.681c.274.332.518.664.748.993a6.861,6.861,0,0,0-1.415,1.534,2.132,2.132,0,0,0-.142,1.789,1.02,1.02,0,0,0,1.455.433c.722-.471.768-2.024.566-2.767-.011-.04-.168-.439-.287-.727.1.15.209.3.3.449.356.546.648,1.068.9,1.533.143.265.267.508.38.736a6.829,6.829,0,0,0-.545,2,2.132,2.132,0,0,0,.7,1.653,1.02,1.02,0,0,0,1.491-.286c.424-.751-.251-2.151-.773-2.717-.045-.049-.838-.733-.845-.718l-.007.017c-.1-.222-.22-.458-.351-.714-.245-.471-.527-1-.873-1.557a18.132,18.132,0,0,0-1.2-1.741,13.317,13.317,0,0,0-1.6-1.737l-.022-.018c.23.1.883.373.936.388.74.212,2.294.185,2.774-.531a1.02,1.02,0,0,0-.415-1.46A2.132,2.132,0,0,0,325.556,244.814Z" transform="translate(-307.158 -236.024)" fill="#4cb1ff" stroke="rgba(0,0,0,0)" stroke-width="0.2"/>
        <path id="Path_102247" data-name="Path 102247" d="M359.194,363.953c-.016,0,.32.992.349,1.052.329.7,1.373,1.848,2.227,1.737a1.02,1.02,0,0,0,.825-1.274,2.132,2.132,0,0,0-1.269-1.268A7.3,7.3,0,0,0,359.194,363.953Z" transform="translate(-350.949 -343.683)" fill="#4cb1ff" stroke="rgba(0,0,0,0)" stroke-width="0.2"/>
      </g>
      <g id="Group_68391" data-name="Group 68391" transform="translate(0 0)">
        <path id="Path_102248" data-name="Path 102248" d="M134.235,140.657a5.858,5.858,0,0,0,1.171-1.262c.007-.01-.794-.263-.846-.274-.606-.118-1.847.011-2.181.617a.819.819,0,0,0,.433,1.139A1.711,1.711,0,0,0,134.235,140.657Z" transform="translate(-131.197 -125.172)" fill="#4cb1ff" stroke="rgba(0,0,0,0)" stroke-width="0.2"/>
        <path id="Path_102249" data-name="Path 102249" d="M131.543,68.536a5.685,5.685,0,0,0,.79-1.511,14.479,14.479,0,0,0,1.852.555c.366.086.737.161,1.11.231-.175-.007-.332-.012-.354-.01-.616.047-1.779.5-1.94,1.171a.818.818,0,0,0,.718.984,1.711,1.711,0,0,0,1.314-.588,5.425,5.425,0,0,0,.773-1.465c.143.026.286.053.43.077.689.12,1.376.237,2.047.372.237.048.468.1.7.158-.156-.006-.287-.01-.307-.008-.616.047-1.778.5-1.94,1.171a.819.819,0,0,0,.718.984,1.711,1.711,0,0,0,1.314-.588,5.22,5.22,0,0,0,.757-1.422c.235.063.471.126.7.2.153.052.3.092.454.154l.446.171c.28.119.569.24.839.363.188.084.366.168.546.251-.235-.05-.7-.138-.736-.141-.616-.047-1.833.223-2.1.864a.818.818,0,0,0,.561,1.081,1.711,1.711,0,0,0,1.388-.382,5.628,5.628,0,0,0,1.005-1.365c.3.139.584.278.852.413.594.3,1.117.576,1.555.818l.27-.364c-.459-.242-1.012-.523-1.646-.822-.3-.143-.624-.29-.958-.437a8.924,8.924,0,0,0,.206-1.025,5.988,5.988,0,0,0,1.535-.578c.171.28.334.554.483.815.315.545.584,1.041.809,1.47l.292-.394c-.215-.384-.464-.816-.747-1.284-.172-.285-.361-.586-.558-.893a5.636,5.636,0,0,0,1.112-1.28,1.711,1.711,0,0,0,.069-1.438.818.818,0,0,0-1.178-.31c-.567.4-.565,1.643-.384,2.233.011.035.169.4.272.628-.081-.125-.159-.247-.244-.375-.167-.254-.341-.5-.527-.77l-.286-.383c-.093-.13-.207-.255-.312-.384-.248-.295-.513-.581-.787-.864a5.375,5.375,0,0,0,1.252-1.069A1.711,1.711,0,0,0,144,62.135a.819.819,0,0,0-1.117-.486c-.621.305-.807,1.539-.718,2.15.006.038.119.469.186.7-.166-.169-.331-.338-.5-.5-.5-.477-1.021-.944-1.539-1.412-.159-.143-.315-.288-.472-.432a5.685,5.685,0,0,0,1.3-1.1,1.71,1.71,0,0,0,.286-1.411.818.818,0,0,0-1.117-.485c-.621.305-.807,1.538-.718,2.149.007.046.171.666.22.822-.346-.318-.688-.638-1.012-.967a14.433,14.433,0,0,1-1.23-1.408,5.773,5.773,0,0,0,1.309-1.107,1.711,1.711,0,0,0,.286-1.411.818.818,0,0,0-1.117-.485c-.621.305-.807,1.538-.718,2.149.007.048.184.715.225.834-.022-.029-.048-.056-.069-.085a10.554,10.554,0,0,1-.958-1.61c-.154-.31-.283-.614-.4-.913a5.507,5.507,0,0,0,1.387-.938,1.711,1.711,0,0,0,.439-1.371.819.819,0,0,0-1.057-.605c-.651.235-.971,1.44-.95,2.058,0,.034.051.373.091.62-.052-.136-.108-.275-.155-.406-.178-.492-.31-.953-.424-1.363-.063-.233-.115-.446-.162-.645a5.477,5.477,0,0,0,.793-1.465,1.711,1.711,0,0,0-.242-1.419.818.818,0,0,0-1.217-.05c-.469.508-.2,1.726.105,2.264.026.046.52.726.528.716l.009-.012c.041.193.088.4.143.623.105.413.228.878.4,1.376a14.541,14.541,0,0,0,.617,1.58,10.69,10.69,0,0,0,.935,1.651l.014.018c-.161-.123-.621-.454-.66-.475-.539-.3-1.758-.565-2.264-.094a.819.819,0,0,0,.056,1.217,1.711,1.711,0,0,0,1.42.235,5.7,5.7,0,0,0,1.493-.824,14.49,14.49,0,0,0,1.239,1.484c.258.273.526.541.8.805-.142-.1-.27-.193-.29-.2-.539-.3-1.758-.565-2.264-.094a.818.818,0,0,0,.056,1.217,1.711,1.711,0,0,0,1.42.235,5.428,5.428,0,0,0,1.453-.8c.106.1.21.2.316.3.508.48,1.018.957,1.5,1.439.171.17.333.344.5.517-.126-.091-.234-.166-.251-.176-.54-.3-1.758-.565-2.264-.094a.819.819,0,0,0,.056,1.217,1.711,1.711,0,0,0,1.42.235,5.216,5.216,0,0,0,1.416-.769c.162.183.324.365.472.549.1.128.2.244.294.379l.278.389c.168.254.342.514.5.765.111.174.213.342.316.511-.168-.171-.5-.5-.536-.524a3.179,3.179,0,0,0-1.5-.578.968.968,0,0,0-.152-.1.819.819,0,0,0-1.154.391c-.255.643.435,1.682.912,2.074.028.023.361.241.574.374-.137-.059-.269-.119-.411-.178-.279-.12-.561-.231-.864-.352l-.45-.161c-.149-.057-.314-.1-.472-.148-.369-.109-.748-.2-1.132-.286a5.375,5.375,0,0,0,.454-1.583,1.711,1.711,0,0,0-.54-1.334.818.818,0,0,0-1.2.211c-.35.6.175,1.728.587,2.189.026.029.358.326.544.486-.231-.049-.462-.1-.7-.141-.68-.122-1.372-.224-2.063-.328-.212-.032-.422-.066-.632-.1a5.69,5.69,0,0,0,.477-1.636,1.711,1.711,0,0,0-.54-1.334.819.819,0,0,0-1.2.211c-.349.6.175,1.728.587,2.189.031.035.51.462.637.564-.464-.074-.925-.152-1.377-.248a14.4,14.4,0,0,1-1.8-.5,5.781,5.781,0,0,0,.481-1.645,1.711,1.711,0,0,0-.54-1.334.818.818,0,0,0-1.2.211c-.35.6.175,1.728.587,2.189.032.036.548.5.647.572-.034-.012-.071-.021-.1-.033a10.564,10.564,0,0,1-1.687-.815c-.3-.174-.575-.356-.839-.54a5.5,5.5,0,0,0,.639-1.548,1.71,1.71,0,0,0-.39-1.386.819.819,0,0,0-1.215.078c-.413.555-.016,1.737.343,2.24.02.027.248.283.418.468-.118-.085-.242-.17-.353-.253-.42-.312-.785-.624-1.106-.9-.181-.16-.342-.308-.491-.449a5.485,5.485,0,0,0-.147-1.659,1.712,1.712,0,0,0-.985-1.05.819.819,0,0,0-1.043.63c-.111.683.787,1.549,1.337,1.83.048.024.835.318.835.306s0-.012,0-.015c.141.138.293.284.463.44.315.286.675.607,1.089.929a14.525,14.525,0,0,0,1.387.977,10.662,10.662,0,0,0,1.691.862l.022.007c-.2-.014-.769-.035-.812-.032-.616.047-1.778.5-1.94,1.171a.819.819,0,0,0,.718.984A1.711,1.711,0,0,0,131.543,68.536Z" transform="translate(-125.431 -51.294)" fill="#4cb1ff" stroke="rgba(0,0,0,0)" stroke-width="0.2"/>
        <path id="Path_102250" data-name="Path 102250" d="M175.481,79.921c.012,0-.517-.658-.555-.7-.441-.433-1.547-1.009-2.159-.688a.818.818,0,0,0-.267,1.188,1.709,1.709,0,0,0,1.308.6A5.862,5.862,0,0,0,175.481,79.921Z" transform="translate(-164.918 -74.142)" fill="#4cb1ff" stroke="rgba(0,0,0,0)" stroke-width="0.2"/>
      </g>
    </g>
    <g id="Icons" transform="translate(11.015 40.522)">
      <g id="Group_68392" data-name="Group 68392" transform="translate(0 18.297)" opacity="0.1">
        <path id="Path_102251" data-name="Path 102251" d="M32.027,160.552c.022-.169-.174-.354-.174-.529s.2-.36.174-.529-.26-.3-.3-.467.1-.4.03-.556-.329-.223-.415-.372-.01-.408-.115-.545-.375-.13-.5-.252-.115-.392-.252-.5-.4-.029-.545-.115-.211-.349-.372-.415-.388.075-.556.03-.294-.281-.467-.3-.354.174-.529.174-.36-.2-.529-.174-.3.26-.467.3-.4-.1-.556-.03-.223.329-.372.415-.409.01-.545.115-.13.375-.252.5-.392.115-.5.252-.029.4-.115.545-.349.212-.415.372.075.388.03.556-.281.294-.3.467.174.354.174.529-.2.36-.174.529.26.3.3.467-.1.4-.03.556.329.223.415.372.01.408.115.545.375.13.5.252.115.392.252.5.4.029.545.115.212.349.372.415.388-.075.556-.03.294.281.467.3.354-.174.529-.174.361.2.529.174.3-.26.467-.3.4.1.556.03.223-.329.372-.415.408-.01.545-.115.13-.375.252-.5.392-.115.5-.252.029-.4.115-.545.349-.212.415-.372-.075-.388-.03-.556S32,160.725,32.027,160.552Zm-4.021,2.59a3.119,3.119,0,1,1,3.12-3.119A3.119,3.119,0,0,1,28.006,163.142Z" transform="translate(-23.983 -156)" stroke="rgba(0,0,0,0)" stroke-width="0.2"/>
        <circle id="Ellipse_2490" data-name="Ellipse 2490" cx="2.496" cy="2.496" r="2.496" transform="translate(0.494 4.023) rotate(-45)" stroke="rgba(0,0,0,0)" stroke-width="0.2"/>
      </g>
      <g id="Group_68393" data-name="Group 68393" transform="translate(59.101 15.604)" opacity="0.1">
        <path id="Path_102252" data-name="Path 102252" d="M407.72,145.076c.029-.225-.232-.473-.232-.707s.261-.481.232-.707-.347-.4-.406-.623.128-.531.04-.742-.439-.3-.554-.5-.014-.545-.154-.727-.5-.173-.663-.336-.153-.523-.336-.663-.528-.038-.727-.154-.282-.465-.5-.554-.518.1-.742.041-.392-.376-.623-.406-.473.232-.707.232-.481-.261-.707-.232-.4.347-.623.406-.531-.128-.742-.041-.3.439-.5.554-.545.014-.728.154-.173.5-.336.663-.523.153-.663.336-.038.528-.154.727-.465.282-.554.5.1.518.041.742-.376.392-.406.623.232.473.232.707-.261.481-.232.707.347.4.406.623-.128.531-.041.742.439.3.554.5.014.545.154.727.5.173.663.336.153.523.336.663.528.038.727.154.282.465.5.554.518-.1.742-.041.392.376.623.406.473-.232.707-.232.481.261.707.232.4-.347.623-.406.531.128.742.041.3-.439.5-.554.545-.014.727-.154.173-.5.336-.663.523-.153.663-.336.038-.528.154-.727.465-.282.554-.5-.1-.518-.041-.742S407.69,145.307,407.72,145.076Zm-5.367,3.457a4.164,4.164,0,1,1,4.164-4.164A4.164,4.164,0,0,1,402.353,148.534Z" transform="translate(-396.983 -139)" stroke="rgba(0,0,0,0)" stroke-width="0.2"/>
        <circle id="Ellipse_2491" data-name="Ellipse 2491" cx="3.331" cy="3.331" r="3.331" transform="matrix(0.802, -0.597, 0.597, 0.802, 0.709, 4.684)" stroke="rgba(0,0,0,0)" stroke-width="0.2"/>
      </g>
      <g id="Group_68394" data-name="Group 68394" transform="translate(55.392 53.335)" opacity="0.1">
        <path id="Path_102253" data-name="Path 102253" d="M391.064,391.132a3.486,3.486,0,1,0,3.486,3.486A3.486,3.486,0,0,0,391.064,391.132Zm.225,5.9v.367h-.443v-.367c-.6-.083-.873-.54-.873-1.2v-.3h.506v.333c0,.436.18.686.568.686s.568-.25.568-.686c0-1.081-1.621-1.095-1.621-2.46,0-.665.27-1.1.852-1.192v-.388h.443v.388c.589.083.859.541.859,1.192v.132h-.506v-.166c0-.43-.173-.693-.561-.693s-.554.263-.554.693c0,1.088,1.628,1.095,1.628,2.46C392.155,396.489,391.878,396.953,391.289,397.036Z" transform="translate(-385.36 -388.914)" stroke="rgba(0,0,0,0)" stroke-width="0.2"/>
        <path id="Path_102254" data-name="Path 102254" d="M379.282,377.132a5.7,5.7,0,1,0,5.7,5.7A5.7,5.7,0,0,0,379.282,377.132Zm0,9.982a4.278,4.278,0,1,1,4.278-4.278A4.278,4.278,0,0,1,379.282,387.114Z" transform="translate(-373.578 -377.132)" stroke="rgba(0,0,0,0)" stroke-width="0.2"/>
      </g>
      <g id="Group_68395" data-name="Group 68395" transform="translate(43.598 58.931)" opacity="0.1">
        <path id="Path_102255" data-name="Path 102255" d="M311.493,422.337a2.462,2.462,0,1,0,2.462,2.462A2.462,2.462,0,0,0,311.493,422.337Zm.159,4.171v.259h-.313v-.259c-.426-.059-.617-.382-.617-.847v-.21h.357v.235c0,.308.127.485.4.485s.4-.176.4-.485c0-.764-1.145-.773-1.145-1.738,0-.47.191-.778.6-.842v-.274h.313v.274c.416.059.607.382.607.842v.093H311.9v-.117c0-.3-.122-.49-.4-.49s-.392.186-.392.49c0,.768,1.15.773,1.15,1.737C312.264,426.121,312.068,426.449,311.652,426.508Z" transform="translate(-307.464 -420.77)" stroke="rgba(0,0,0,0)" stroke-width="0.2"/>
        <path id="Path_102256" data-name="Path 102256" d="M303.171,412.449a4.029,4.029,0,1,0,4.029,4.029A4.029,4.029,0,0,0,303.171,412.449Zm0,7.051a3.022,3.022,0,1,1,3.022-3.022A3.022,3.022,0,0,1,303.171,419.5Z" transform="translate(-299.142 -412.449)" stroke="rgba(0,0,0,0)" stroke-width="0.2"/>
      </g>
      <g id="Group_68396" data-name="Group 68396" transform="translate(39.341 50.376)" opacity="0.1">
        <path id="Path_102257" data-name="Path 102257" d="M284.628,368.347a2.462,2.462,0,1,0,2.462,2.462A2.462,2.462,0,0,0,284.628,368.347Zm.159,4.17v.259h-.313v-.259c-.426-.059-.617-.382-.617-.847v-.21h.357v.235c0,.308.127.485.4.485s.4-.176.4-.485c0-.764-1.145-.773-1.145-1.738,0-.47.191-.778.6-.842v-.274h.313v.274c.416.059.607.382.607.842v.093h-.357v-.118c0-.3-.122-.489-.4-.489s-.392.186-.392.489c0,.769,1.15.774,1.15,1.738C285.4,372.131,285.2,372.459,284.787,372.517Z" transform="translate(-280.599 -366.78)" stroke="rgba(0,0,0,0)" stroke-width="0.2"/>
        <path id="Path_102258" data-name="Path 102258" d="M276.306,358.458a4.029,4.029,0,1,0,4.029,4.029A4.029,4.029,0,0,0,276.306,358.458Zm0,7.051a3.022,3.022,0,1,1,3.022-3.022A3.022,3.022,0,0,1,276.306,365.509Z" transform="translate(-272.277 -358.458)" stroke="rgba(0,0,0,0)" stroke-width="0.2"/>
      </g>
      <g id="Group_68397" data-name="Group 68397" transform="translate(3.477 0)">
        <path id="Path_102259" data-name="Path 102259" d="M85.778,63.313h2.331l-1.165-2.018Z" transform="translate(-79.464 -58.003)" stroke="rgba(0,0,0,0)" stroke-width="0.2" opacity="0.1"/>
        <path id="Path_102260" data-name="Path 102260" d="M56.91,63.313h2.331l-1.165-2.018Z" transform="translate(-55.17 -58.003)" stroke="rgba(0,0,0,0)" stroke-width="0.2" opacity="0.1"/>
        <path id="Path_102261" data-name="Path 102261" d="M54.616,44.674a4.534,4.534,0,1,0,4.534,4.534A4.539,4.539,0,0,0,54.616,44.674Zm3.207,5.273h-1.84a.512.512,0,0,1-.443-.768l1.331-2.306H54.93v4.411h.72v.376h1v.528H52.705v-.528h.877v-.376H54.5V46.873H52.361l1.331,2.306a.512.512,0,0,1-.443.768h-1.84a.512.512,0,0,1-.443-.768L52.3,46.873h-.054a.215.215,0,0,1,0-.43H54.5a.215.215,0,1,1,.43,0h2.257a.215.215,0,1,1,0,.43h-.252l1.331,2.306A.512.512,0,0,1,57.823,49.947Z" transform="translate(-49.424 -44.016)" stroke="rgba(0,0,0,0)" stroke-width="0.2" opacity="0.1"/>
        <path id="Path_102262" data-name="Path 102262" d="M51.122,40.522a5.192,5.192,0,1,0,5.192,5.192A5.192,5.192,0,0,0,51.122,40.522Zm0,9.885a4.693,4.693,0,1,1,4.693-4.693A4.7,4.7,0,0,1,51.122,50.407Z" transform="translate(-45.93 -40.522)" stroke="rgba(0,0,0,0)" stroke-width="0.2" opacity="0.1"/>
      </g>
      <g id="Group_68398" data-name="Group 68398" transform="translate(6.937 53.151)">
        <path id="Path_102263" data-name="Path 102263" d="M107.614,398.764h2.331l-1.165-2.018Z" transform="translate(-101.3 -393.455)" stroke="rgba(0,0,0,0)" stroke-width="0.2" opacity="0.1"/>
        <path id="Path_102264" data-name="Path 102264" d="M78.746,398.764h2.331l-1.165-2.018Z" transform="translate(-77.006 -393.455)" stroke="rgba(0,0,0,0)" stroke-width="0.2" opacity="0.1"/>
        <path id="Path_102265" data-name="Path 102265" d="M76.451,380.125a4.534,4.534,0,1,0,4.534,4.534A4.539,4.539,0,0,0,76.451,380.125Zm3.207,5.273h-1.84a.512.512,0,0,1-.443-.767l1.331-2.306H76.765v4.411h.72v.376h1v.528H74.54v-.528h.877v-.376h.918v-4.411H74.2l1.331,2.306a.512.512,0,0,1-.443.767h-1.84a.512.512,0,0,1-.443-.767l1.331-2.306h-.054a.215.215,0,1,1,0-.43h2.257a.215.215,0,0,1,.43,0h2.257a.215.215,0,0,1,0,.43H78.77L80.1,384.63A.512.512,0,0,1,79.658,385.4Z" transform="translate(-71.259 -379.467)" stroke="rgba(0,0,0,0)" stroke-width="0.2" opacity="0.1"/>
        <path id="Path_102266" data-name="Path 102266" d="M72.958,375.973a5.192,5.192,0,1,0,5.192,5.192A5.192,5.192,0,0,0,72.958,375.973Zm0,9.885a4.693,4.693,0,1,1,4.693-4.693A4.7,4.7,0,0,1,72.958,385.858Z" transform="translate(-67.766 -375.973)" stroke="rgba(0,0,0,0)" stroke-width="0.2" opacity="0.1"/>
      </g>
    </g>
    <g id="Floor" transform="translate(13.394 109.047)">
      <ellipse id="Ellipse_2492" data-name="Ellipse 2492" cx="32.799" cy="1.268" rx="32.799" ry="1.268" transform="translate(0 0)" fill="#263238" stroke="rgba(0,0,0,0)" stroke-width="0.2"/>
    </g>
    <g id="Contract" transform="translate(22.485 41.04)">
      <g id="Group_68404" data-name="Group 68404" transform="translate(0 0)">
        <path id="Path_102267" data-name="Path 102267" d="M143.292,81.006a2.606,2.606,0,0,0,2.542-1.39,6.942,6.942,0,0,0,.771-2.259c.195-.9,7.153-33.246,7.223-33.567H118.588L111.414,77.13l-.292,1.346a2.572,2.572,0,0,1-.315.787l-.213.354a2.377,2.377,0,0,1-4.2-.259,3.764,3.764,0,0,0-3.377-2.227h-.132a3.768,3.768,0,0,0-3.593,2.884L96.376,92.1h35.241l2.674-11.09" transform="translate(-96.376 -43.791)" fill="#fff" stroke="#263238" stroke-linecap="round" stroke-linejoin="round" stroke-width="0.2"/>
        <g id="Group_68399" data-name="Group 68399" transform="translate(31.713 3.018)">
          <path id="Path_102268" data-name="Path 102268" d="M298.179,63.583l-.051.267h-.313l.055-.284c.051-.267-.024-.427-.265-.427s-.378.161-.429.427l-.3,1.566c-.051.267.028.427.265.427s.378-.161.429-.427l.074-.385h.313l-.071.368a.806.806,0,0,1-.812.745c-.453,0-.607-.3-.521-.745l.3-1.532a.8.8,0,0,1,.808-.745C298.111,62.838,298.266,63.134,298.179,63.583Z" transform="translate(-296.528 -62.838)" fill="#263238" stroke="rgba(0,0,0,0)" stroke-width="0.2"/>
          <path id="Path_102269" data-name="Path 102269" d="M307,63.583a.814.814,0,0,1,.821-.745c.457,0,.625.292.538.745l-.3,1.532a.817.817,0,0,1-.825.745c-.453,0-.62-.3-.534-.745Zm.027,1.549c-.052.271.032.427.269.427s.381-.157.434-.427l.3-1.566c.051-.267-.028-.427-.269-.427s-.382.161-.434.427Z" transform="translate(-305.076 -62.838)" fill="#263238" stroke="rgba(0,0,0,0)" stroke-width="0.2"/>
          <path id="Path_102270" data-name="Path 102270" d="M316.775,65.989h-.3l.571-2.963h.419l.273,2.142.413-2.142h.292l-.571,2.963h-.343l-.3-2.4Z" transform="translate(-313.318 -62.996)" fill="#263238" stroke="rgba(0,0,0,0)" stroke-width="0.2"/>
          <path id="Path_102271" data-name="Path 102271" d="M329.956,65.989l.513-2.662h-.546l.058-.3H331.4l-.058.3H330.8l-.513,2.662Z" transform="translate(-324.632 -62.996)" fill="#263238" stroke="rgba(0,0,0,0)" stroke-width="0.2"/>
          <path id="Path_102272" data-name="Path 102272" d="M338.281,63.026c.466,0,.615.237.53.677l-.047.241a.7.7,0,0,1-.486.61c.255.08.315.3.253.618l-.089.461a.714.714,0,0,0-.009.356H338.1a.747.747,0,0,1,.014-.36l.09-.466c.064-.334-.072-.44-.347-.44h-.233l-.244,1.266h-.33l.571-2.963Zm-.354,1.4a.435.435,0,0,0,.5-.406l.055-.284c.051-.267-.019-.406-.264-.406h-.322l-.211,1.1Z" transform="translate(-330.629 -62.996)" fill="#263238" stroke="rgba(0,0,0,0)" stroke-width="0.2"/>
          <path id="Path_102273" data-name="Path 102273" d="M347.576,65.392l-.229.6h-.3l1.138-2.963h.478l0,2.963h-.33v-.6Zm.1-.284h.66l0-1.71Z" transform="translate(-339.038 -62.996)" fill="#263238" stroke="rgba(0,0,0,0)" stroke-width="0.2"/>
          <path id="Path_102274" data-name="Path 102274" d="M361.041,63.583l-.051.267h-.313l.055-.284c.051-.267-.023-.427-.265-.427s-.378.161-.429.427l-.3,1.566c-.051.267.028.427.265.427s.378-.161.43-.427l.074-.385h.313l-.071.368a.805.805,0,0,1-.812.745c-.453,0-.607-.3-.521-.745l.3-1.532a.8.8,0,0,1,.808-.745C360.973,62.838,361.127,63.134,361.041,63.583Z" transform="translate(-349.429 -62.838)" fill="#263238" stroke="rgba(0,0,0,0)" stroke-width="0.2"/>
          <path id="Path_102275" data-name="Path 102275" d="M371.5,65.989l.513-2.662h-.546l.058-.3h1.418l-.058.3h-.546l-.513,2.662Z" transform="translate(-359.592 -62.996)" fill="#263238" stroke="rgba(0,0,0,0)" stroke-width="0.2"/>
        </g>
        <line id="Line_2246" data-name="Line 2246" x2="31.085" transform="translate(23.12 7.457)" fill="none" stroke="#263238" stroke-miterlimit="10" stroke-width="0.2"/>
        <g id="Group_68402" data-name="Group 68402" transform="translate(17.531 10.903)">
          <g id="Group_68401" data-name="Group 68401" transform="translate(0.383)">
            <g id="Group_68400" data-name="Group 68400">
              <line id="Line_2247" data-name="Line 2247" x2="7.274" transform="translate(28.023)" fill="none" stroke="#263238" stroke-miterlimit="10" stroke-width="0.2"/>
              <line id="Line_2248" data-name="Line 2248" x2="10.642" transform="translate(16.614)" fill="none" stroke="#263238" stroke-miterlimit="10" stroke-width="0.2"/>
              <line id="Line_2249" data-name="Line 2249" x2="6.508" transform="translate(9.494)" fill="none" stroke="#263238" stroke-miterlimit="10" stroke-width="0.2"/>
              <line id="Line_2250" data-name="Line 2250" x2="4.67" transform="translate(4.211)" fill="none" stroke="#263238" stroke-miterlimit="10" stroke-width="0.2"/>
              <line id="Line_2251" data-name="Line 2251" x2="7.81" transform="translate(27.104 1.761)" fill="none" stroke="#263238" stroke-miterlimit="10" stroke-width="0.2"/>
              <line id="Line_2252" data-name="Line 2252" x2="16.921" transform="translate(9.417 1.761)" fill="none" stroke="#263238" stroke-miterlimit="10" stroke-width="0.2"/>
              <line id="Line_2253" data-name="Line 2253" x2="4.9" transform="translate(3.828 1.761)" fill="none" stroke="#263238" stroke-miterlimit="10" stroke-width="0.2"/>
              <line id="Line_2254" data-name="Line 2254" x2="9.035" transform="translate(25.496 3.522)" fill="none" stroke="#263238" stroke-miterlimit="10" stroke-width="0.2"/>
              <line id="Line_2255" data-name="Line 2255" x2="12.939" transform="translate(11.944 3.522)" fill="none" stroke="#263238" stroke-miterlimit="10" stroke-width="0.2"/>
              <line id="Line_2256" data-name="Line 2256" x2="7.886" transform="translate(3.445 3.522)" fill="none" stroke="#263238" stroke-miterlimit="10" stroke-width="0.2"/>
              <line id="Line_2257" data-name="Line 2257" x2="5.666" transform="translate(28.482 5.283)" fill="none" stroke="#263238" stroke-miterlimit="10" stroke-width="0.2"/>
              <line id="Line_2258" data-name="Line 2258" x2="7.886" transform="translate(19.83 5.283)" fill="none" stroke="#263238" stroke-miterlimit="10" stroke-width="0.2"/>
              <line id="Line_2259" data-name="Line 2259" x2="7.58" transform="translate(11.485 5.283)" fill="none" stroke="#263238" stroke-miterlimit="10" stroke-width="0.2"/>
              <line id="Line_2260" data-name="Line 2260" x2="5.589" transform="translate(5.206 5.283)" fill="none" stroke="#263238" stroke-miterlimit="10" stroke-width="0.2"/>
              <line id="Line_2261" data-name="Line 2261" x2="1.455" transform="translate(3.063 5.283)" fill="none" stroke="#263238" stroke-miterlimit="10" stroke-width="0.2"/>
              <line id="Line_2262" data-name="Line 2262" x2="1.302" transform="translate(32.463 7.044)" fill="none" stroke="#263238" stroke-miterlimit="10" stroke-width="0.2"/>
              <line id="Line_2263" data-name="Line 2263" x2="11.944" transform="translate(19.524 7.044)" fill="none" stroke="#263238" stroke-miterlimit="10" stroke-width="0.2"/>
              <line id="Line_2264" data-name="Line 2264" x2="8.346" transform="translate(10.413 7.044)" fill="none" stroke="#263238" stroke-miterlimit="10" stroke-width="0.2"/>
              <line id="Line_2265" data-name="Line 2265" x2="6.891" transform="translate(2.68 7.044)" fill="none" stroke="#263238" stroke-miterlimit="10" stroke-width="0.2"/>
              <line id="Line_2266" data-name="Line 2266" x2="2.603" transform="translate(30.779 8.805)" fill="none" stroke="#263238" stroke-miterlimit="10" stroke-width="0.2"/>
              <line id="Line_2267" data-name="Line 2267" x2="6.891" transform="translate(23.199 8.805)" fill="none" stroke="#263238" stroke-miterlimit="10" stroke-width="0.2"/>
              <line id="Line_2268" data-name="Line 2268" x2="1.531" transform="translate(20.902 8.805)" fill="none" stroke="#263238" stroke-miterlimit="10" stroke-width="0.2"/>
              <line id="Line_2269" data-name="Line 2269" x2="10.642" transform="translate(9.877 8.805)" fill="none" stroke="#263238" stroke-miterlimit="10" stroke-width="0.2"/>
              <line id="Line_2270" data-name="Line 2270" x2="6.967" transform="translate(2.297 8.805)" fill="none" stroke="#263238" stroke-miterlimit="10" stroke-width="0.2"/>
              <line id="Line_2271" data-name="Line 2271" x2="31.085" transform="translate(1.914 10.566)" fill="none" stroke="#263238" stroke-miterlimit="10" stroke-width="0.2"/>
              <line id="Line_2272" data-name="Line 2272" x2="1.608" transform="translate(31.009 12.327)" fill="none" stroke="#263238" stroke-miterlimit="10" stroke-width="0.2"/>
              <line id="Line_2273" data-name="Line 2273" x2="6.049" transform="translate(23.965 12.327)" fill="none" stroke="#263238" stroke-miterlimit="10" stroke-width="0.2"/>
              <line id="Line_2274" data-name="Line 2274" x2="9.035" transform="translate(13.858 12.327)" fill="none" stroke="#263238" stroke-miterlimit="10" stroke-width="0.2"/>
              <line id="Line_2275" data-name="Line 2275" x2="1.531" transform="translate(11.638 12.327)" fill="none" stroke="#263238" stroke-miterlimit="10" stroke-width="0.2"/>
              <line id="Line_2276" data-name="Line 2276" x2="6.202" transform="translate(4.594 12.327)" fill="none" stroke="#263238" stroke-miterlimit="10" stroke-width="0.2"/>
              <line id="Line_2277" data-name="Line 2277" x2="2.144" transform="translate(1.531 12.327)" fill="none" stroke="#263238" stroke-miterlimit="10" stroke-width="0.2"/>
              <line id="Line_2278" data-name="Line 2278" x2="7.81" transform="translate(24.424 14.088)" fill="none" stroke="#263238" stroke-miterlimit="10" stroke-width="0.2"/>
              <line id="Line_2279" data-name="Line 2279" x2="7.274" transform="translate(16.155 14.088)" fill="none" stroke="#263238" stroke-miterlimit="10" stroke-width="0.2"/>
              <line id="Line_2280" data-name="Line 2280" x2="5.589" transform="translate(9.8 14.088)" fill="none" stroke="#263238" stroke-miterlimit="10" stroke-width="0.2"/>
              <line id="Line_2281" data-name="Line 2281" x2="7.886" transform="translate(1.148 14.088)" fill="none" stroke="#263238" stroke-miterlimit="10" stroke-width="0.2"/>
              <line id="Line_2282" data-name="Line 2282" x2="2.45" transform="translate(29.401 15.849)" fill="none" stroke="#263238" stroke-miterlimit="10" stroke-width="0.2"/>
              <line id="Line_2283" data-name="Line 2283" x2="7.274" transform="translate(21.285 15.849)" fill="none" stroke="#263238" stroke-miterlimit="10" stroke-width="0.2"/>
              <line id="Line_2284" data-name="Line 2284" x2="4.67" transform="translate(16.079 15.849)" fill="none" stroke="#263238" stroke-miterlimit="10" stroke-width="0.2"/>
              <line id="Line_2285" data-name="Line 2285" x2="3.445" transform="translate(11.867 15.849)" fill="none" stroke="#263238" stroke-miterlimit="10" stroke-width="0.2"/>
              <line id="Line_2286" data-name="Line 2286" x2="3.369" transform="translate(7.886 15.849)" fill="none" stroke="#263238" stroke-miterlimit="10" stroke-width="0.2"/>
              <line id="Line_2287" data-name="Line 2287" x2="4.211" transform="translate(2.833 15.849)" fill="none" stroke="#263238" stroke-miterlimit="10" stroke-width="0.2"/>
              <line id="Line_2288" data-name="Line 2288" x2="1.378" transform="translate(0.766 15.849)" fill="none" stroke="#263238" stroke-miterlimit="10" stroke-width="0.2"/>
              <line id="Line_2289" data-name="Line 2289" x2="4.134" transform="translate(27.334 17.61)" fill="none" stroke="#263238" stroke-miterlimit="10" stroke-width="0.2"/>
              <line id="Line_2290" data-name="Line 2290" x2="6.355" transform="translate(20.06 17.61)" fill="none" stroke="#263238" stroke-miterlimit="10" stroke-width="0.2"/>
              <line id="Line_2291" data-name="Line 2291" x2="5.895" transform="translate(13.246 17.61)" fill="none" stroke="#263238" stroke-miterlimit="10" stroke-width="0.2"/>
              <line id="Line_2292" data-name="Line 2292" x2="7.044" transform="translate(5.283 17.61)" fill="none" stroke="#263238" stroke-miterlimit="10" stroke-width="0.2"/>
              <line id="Line_2293" data-name="Line 2293" x2="4.134" transform="translate(0.383 17.61)" fill="none" stroke="#263238" stroke-miterlimit="10" stroke-width="0.2"/>
              <line id="Line_2294" data-name="Line 2294" x2="3.981" transform="translate(27.104 19.371)" fill="none" stroke="#263238" stroke-miterlimit="10" stroke-width="0.2"/>
              <line id="Line_2295" data-name="Line 2295" x2="6.125" transform="translate(20.213 19.371)" fill="none" stroke="#263238" stroke-miterlimit="10" stroke-width="0.2"/>
              <line id="Line_2296" data-name="Line 2296" x2="6.049" transform="translate(13.093 19.371)" fill="none" stroke="#263238" stroke-miterlimit="10" stroke-width="0.2"/>
              <line id="Line_2297" data-name="Line 2297" x2="4.211" transform="translate(8.192 19.371)" fill="none" stroke="#263238" stroke-miterlimit="10" stroke-width="0.2"/>
              <line id="Line_2298" data-name="Line 2298" x2="4.288" transform="translate(3.139 19.371)" fill="none" stroke="#263238" stroke-miterlimit="10" stroke-width="0.2"/>
              <line id="Line_2299" data-name="Line 2299" x2="2.68" transform="translate(0 19.371)" fill="none" stroke="#263238" stroke-miterlimit="10" stroke-width="0.2"/>
            </g>
            <line id="Line_2300" data-name="Line 2300" x2="2.297" transform="translate(28.405 21.132)" fill="none" stroke="#263238" stroke-miterlimit="10" stroke-width="0.2"/>
          </g>
          <line id="Line_2301" data-name="Line 2301" x2="7.044" transform="translate(20.979 21.132)" fill="none" stroke="#263238" stroke-miterlimit="10" stroke-width="0.2"/>
          <line id="Line_2302" data-name="Line 2302" x2="5.283" transform="translate(14.777 21.132)" fill="none" stroke="#263238" stroke-miterlimit="10" stroke-width="0.2"/>
          <line id="Line_2303" data-name="Line 2303" x2="3.216" transform="translate(10.719 21.132)" fill="none" stroke="#263238" stroke-miterlimit="10" stroke-width="0.2"/>
          <line id="Line_2304" data-name="Line 2304" x2="5.36" transform="translate(4.211 21.132)" fill="none" stroke="#263238" stroke-miterlimit="10" stroke-width="0.2"/>
          <line id="Line_2305" data-name="Line 2305" x2="3.675" transform="translate(0 21.132)" fill="none" stroke="#263238" stroke-miterlimit="10" stroke-width="0.2"/>
        </g>
        <path id="Path_102276" data-name="Path 102276" d="M137.878,254.2v.011a3.768,3.768,0,0,0-3.348,2.873l-2.913,12.082H96.376l2.913-12.082a3.768,3.768,0,0,1,3.593-2.884Z" transform="translate(-96.376 -220.862)" fill="#fff" stroke="#263238" stroke-linecap="round" stroke-linejoin="round" stroke-width="0.2"/>
        <path id="Path_102277" data-name="Path 102277" d="M344.67,258.07h-9l.239-.992a3.771,3.771,0,0,1,3.348-2.873q.154-.013.309-.013a3.632,3.632,0,0,1,3.444,2.229A2.325,2.325,0,0,0,344.67,258.07Z" transform="translate(-297.754 -220.855)" fill="#263238" stroke="#263238" stroke-linecap="round" stroke-linejoin="round" stroke-width="0.2"/>
        <g id="Group_68403" data-name="Group 68403" transform="translate(29.763 33.748)">
          <path id="Path_102278" data-name="Path 102278" d="M290.35,259.219c0,.116-.286.2-.307.315s.212.3.171.405-.34.087-.4.186.1.35.026.439-.351-.023-.437.055,0,.363-.1.43-.335-.111-.437-.056-.085.353-.193.4-.3-.182-.415-.149-.155.327-.27.349-.263-.238-.378-.227-.214.292-.33.292-.218-.282-.33-.292-.267.248-.378.227-.161-.317-.27-.349-.31.192-.415.149-.094-.343-.193-.4-.345.121-.437.056-.013-.354-.1-.43-.365.031-.437-.055.084-.342.026-.439-.358-.08-.4-.186.192-.293.171-.405-.307-.2-.307-.315.286-.2.307-.315-.212-.3-.171-.405.34-.087.4-.186-.1-.35-.026-.439.351.023.437-.055,0-.363.1-.43.335.112.437.057.085-.353.193-.4.3.182.415.149.156-.328.27-.349.263.238.378.227.214-.292.33-.292.218.282.33.292.267-.248.378-.227.161.317.27.349.31-.192.415-.149.094.343.193.4.345-.121.437-.056.013.354.1.43.365-.031.437.055-.084.342-.026.439.358.08.4.186-.192.293-.171.405S290.35,259.1,290.35,259.219Z" transform="translate(-284.218 -256.784)" fill="#2b67b8" stroke="rgba(0,0,0,0)" stroke-width="0.2"/>
          <ellipse id="Ellipse_2493" data-name="Ellipse 2493" cx="2.327" cy="1.826" rx="2.327" ry="1.826" transform="translate(0.739 0.609)" fill="#fff" stroke="rgba(0,0,0,0)" stroke-width="0.2"/>
          <ellipse id="Ellipse_2494" data-name="Ellipse 2494" cx="1.884" cy="1.478" rx="1.884" ry="1.478" transform="translate(1.182 0.957)" fill="#2b67b8" stroke="rgba(0,0,0,0)" stroke-width="0.2"/>
        </g>
        <line id="Line_2306" data-name="Line 2306" x1="15.302" transform="translate(18.853 45.078)" fill="none" stroke="#263238" stroke-linecap="round" stroke-linejoin="round" stroke-width="0.2"/>
        <line id="Line_2307" data-name="Line 2307" x1="10.965" transform="translate(3.02 45.078)" fill="none" stroke="#263238" stroke-linecap="round" stroke-linejoin="round" stroke-width="0.2"/>
        <path id="Path_102279" data-name="Path 102279" d="M236.312,283.83a18.627,18.627,0,0,0,3.711-6.336c.823-3.137-1.2-1.437-2.011,2.044s-.81,4.372,0,3.724a8.442,8.442,0,0,0,1.662-1.938c.114-.181.21-.348.281-.491.324-.648-.729-.243-.972,1.053s1.215-.567,1.619-1.215,1.214-.972.567.729-1.619,1.376-.729.243,1.862-3.481,1.943-2.186-.243,2.753-.891,3.158,1.214-1.862,1.781-1.7a.713.713,0,0,1,.243,1.3c-.567.486-.567-1.134,3.724-.972" transform="translate(-214.14 -239.076)" fill="none" stroke="#263238" stroke-linecap="round" stroke-linejoin="round" stroke-width="0.2"/>
      </g>
    </g>
    <g id="Character" transform="translate(20.232 62.165)">
      <g id="Group_68412" data-name="Group 68412" transform="translate(0 0)">
        <g id="Group_68406" data-name="Group 68406" transform="translate(0.413)">
          <path id="Path_102280" data-name="Path 102280" d="M296.8,298.05l2.374,1.907a.148.148,0,0,1-.13.258l-3.008-.781Z" transform="translate(-262.564 -278.889)" fill="#fff" stroke="#263238" stroke-linecap="round" stroke-linejoin="round" stroke-width="0.2"/>
          <g id="Group_68405" data-name="Group 68405">
            <path id="Path_102281" data-name="Path 102281" d="M216.424,249.708l-13.887-8.222-1.553,2.64,14.378,7.788a.705.705,0,0,0,.114.062,1.275,1.275,0,0,0,.947-2.268Z" transform="translate(-182.57 -231.287)" fill="#8c8c8c" stroke="#263238" stroke-linecap="round" stroke-linejoin="round" stroke-width="0.2"/>
            <path id="Path_102282" data-name="Path 102282" d="M118.5,189.822a1.725,1.725,0,0,1-2.074,1.2,1.156,1.156,0,0,1-.2-.112l-14.233-7.932-1.161-.647-.142-.079.036-.086,1.632-3.908.07-.166.188.113,1.626.991L117.89,187.5A1.726,1.726,0,0,1,118.5,189.822Z" transform="translate(-98.161 -177.938)" fill="#fff" stroke="#263238" stroke-linecap="round" stroke-linejoin="round" stroke-width="0.2"/>
            <path id="Path_102283" data-name="Path 102283" d="M117.754,187.42,104.235,179.2l-1.626-.991-.188-.113-.07.166-1.632,3.908-.036.086.142.079,1.161.647,13.907,7.75a1.825,1.825,0,0,0,2.018-1.275A2.035,2.035,0,0,0,117.754,187.42Z" transform="translate(-98.161 -177.938)" fill="#8c8c8c" stroke="#263238" stroke-linecap="round" stroke-linejoin="round" stroke-width="0.2"/>
            <path id="Path_102284" data-name="Path 102284" d="M100.75,183.579a2.465,2.465,0,0,0,2.183-1.666A2.774,2.774,0,0,0,103,179.8l-1.626-.991a1.835,1.835,0,0,0-.258.053,2.916,2.916,0,0,0-1.632,3.908,1.576,1.576,0,0,0,.106.165" transform="translate(-96.924 -178.539)" fill="#fff" stroke="#263238" stroke-linecap="round" stroke-linejoin="round" stroke-width="0.2"/>
            <path id="Path_102285" data-name="Path 102285" d="M113.545,193.819l10.559,6.872a.312.312,0,0,1,.106.406h0a.312.312,0,0,1-.435.124L112.914,194.8Z" transform="translate(-108.454 -191.173)" fill="#fff" stroke="#263238" stroke-linecap="round" stroke-linejoin="round" stroke-width="0.2"/>
            <path id="Path_102286" data-name="Path 102286" d="M98.15,180.283a1.782,1.782,0,1,1-.716-2.742A2.042,2.042,0,0,1,98.15,180.283Z" transform="translate(-93.174 -177.386)" fill="#8c8c8c" stroke="#263238" stroke-linecap="round" stroke-linejoin="round" stroke-width="0.2"/>
            <path id="Path_102287" data-name="Path 102287" d="M89.4,179.873a1.6,1.6,0,0,1-1.925,1.113c-.687-.287-3.046-2.548-2.67-3.45s3.346-.1,4.033.186A1.6,1.6,0,0,1,89.4,179.873Z" transform="translate(-84.763 -177.119)" fill="#fff" stroke="#263238" stroke-linecap="round" stroke-linejoin="round" stroke-width="0.2"/>
          </g>
        </g>
        <path id="Path_102288" data-name="Path 102288" d="M253.685,286.653l.856-.4a.828.828,0,0,1,.542.171c.257.2.742.514.742.514s.97.057,1,.2-.571.314-.656.314h-.628s.885.456.97.514,1.313.428,1.141.542a12.79,12.79,0,0,1-1.57.143,4.919,4.919,0,0,1-.77.057l-.97-.885-.685-.742S253.428,286.824,253.685,286.653Z" transform="translate(-226.404 -268.96)" fill="#fff" stroke="#263238" stroke-linecap="round" stroke-linejoin="round" stroke-width="0.2"/>
        <path id="Path_102289" data-name="Path 102289" d="M102.659,206.671s-.057-.77-.057-1.141a2.833,2.833,0,0,0-.285-1.141,8.384,8.384,0,0,1-1.227-.628c-.257-.228-.571.086-.456.285a3.241,3.241,0,0,0,.77.571l-.171.257-.628-.542s-.656-1.027-.827-.942-.114.228,0,.428.057,1.484.371,1.741a5.845,5.845,0,0,0,1.256.571l.086.713s.885.057,1,.086S102.659,206.671,102.659,206.671Z" transform="translate(-96.894 -199.222)" fill="#fff" stroke="#263238" stroke-linecap="round" stroke-linejoin="round" stroke-width="0.2"/>
        <path id="Path_102290" data-name="Path 102290" d="M106.654,224.7l.114-.77s-.029-.257.628-.371a2.467,2.467,0,0,1,1.141.057.226.226,0,0,1,.143.2,4.913,4.913,0,0,1-.086.828A2.654,2.654,0,0,0,106.654,224.7Z" transform="translate(-102.772 -216.168)" fill="#fff" stroke="#263238" stroke-linecap="round" stroke-linejoin="round" stroke-width="0.2"/>
        <g id="Group_68407" data-name="Group 68407" transform="translate(15.328 45.834)">
          <path id="Path_102291" data-name="Path 102291" d="M178.894,466.963v2.052a4.724,4.724,0,0,0,1.861.238,10.752,10.752,0,0,0,3.626-.716c.668-.286.907-.907.668-1a10.342,10.342,0,0,1-1.67-.334c-.239-.191-1.241-.811-1.241-.811A12.088,12.088,0,0,1,178.894,466.963Z" transform="translate(-178.894 -466.391)" fill="#2b67b8" stroke="#263238" stroke-linecap="round" stroke-linejoin="round" stroke-width="0.2"/>
          <path id="Path_102292" data-name="Path 102292" d="M185.137,474.81a10.708,10.708,0,0,1-3.166.925,8.264,8.264,0,0,1-3.077-.077v.443a4.724,4.724,0,0,0,1.861.238,10.752,10.752,0,0,0,3.626-.716A1.186,1.186,0,0,0,185.137,474.81Z" transform="translate(-178.894 -473.476)" fill="#fff" stroke="#263238" stroke-linecap="round" stroke-linejoin="round" stroke-width="0.2"/>
        </g>
        <path id="Path_102293" data-name="Path 102293" d="M101.553,340.816l.239.668s1,1.909,1.718,3.293,1.479,4.342,1.718,4.628a1.1,1.1,0,0,1,.048,1.1c-.143.429-1.288,7.921-1.288,8.112s-.1.191.048.429a3.5,3.5,0,0,1,.191,1,2.129,2.129,0,0,1-1.145.573,16.708,16.708,0,0,1-2.243.143,5.58,5.58,0,0,1-.143-1.05c.048-.143.191-1.05.191-1.05a17.723,17.723,0,0,0,.382-3.531,23.2,23.2,0,0,1,.239-4.151,4.382,4.382,0,0,0,.1-.954l-.286-.525v-.382s-2.29-2.338-3.2-3.245-1.813-2-1.813-2-1.05,4.676-1.336,5.678a6.675,6.675,0,0,1-.62,1.718c-.191.286-2.147,2.863-2.863,3.913s-1.813,2.911-1.813,2.911a5.858,5.858,0,0,0,.048.811c.048.191-.477.907-.477.907l-.191.191a6.9,6.9,0,0,0-1.574-1.241,5.1,5.1,0,0,0-1.336.048s.573-1.575.716-1.909,1.479-3.722,1.861-4.39.668-2,1.336-2.529,1.432-1.145,1.432-1.145l-.1-5.344-.1-1.479a4.87,4.87,0,0,1-.143-1.145v-.954a34.481,34.481,0,0,0,6.489.906,10.324,10.324,0,0,0,3.436-.668Z" transform="translate(-85.509 -314.116)" fill="#263238" stroke="#263238" stroke-linecap="round" stroke-linejoin="round" stroke-width="0.2"/>
        <g id="Group_68409" data-name="Group 68409" transform="translate(2.939 8.098)">
          <path id="Path_102294" data-name="Path 102294" d="M115,231.915a13.648,13.648,0,0,0-3.8-1.084c-1.313,0-2.026.029-3.424.086a5.746,5.746,0,0,0-2.226.485l-2.055.685.171-3.738a3.2,3.2,0,0,0-1.284-.086,1.764,1.764,0,0,0-.942.514s-.77,5.079-.742,5.536.628.542.628.542l4.651-.086-.342,5.193-3.481,6.05s.029.942,2.882,1.883a15.875,15.875,0,0,0,7.448.342,9.444,9.444,0,0,0,2.962-1.768,6.336,6.336,0,0,0,.006-1.656c0-.428-.713-4.48-.6-4.68s.742-2.882.742-2.882,5.793,3.767,6.135,3.71,3.824-1.769,3.909-1.826.314-.371-.029-.885a1.434,1.434,0,0,0-1.113-.6c-.171,0-2.511.2-2.511.2s-2.939-2.6-3.025-2.739-.542-1.341-.742-1.655A21.546,21.546,0,0,0,115,231.915Z" transform="translate(-100.706 -228.228)" fill="#4cb1ff" stroke="#263238" stroke-linecap="round" stroke-linejoin="round" stroke-width="0.2"/>
          <path id="Path_102295" data-name="Path 102295" d="M235.063,288.962a4.455,4.455,0,0,1,1.124.861" transform="translate(-213.775 -279.339)" fill="#92e3a9" stroke="#263238" stroke-linecap="round" stroke-linejoin="round" stroke-width="0.2"/>
          <path id="Path_102296" data-name="Path 102296" d="M202.025,261.227a3,3,0,0,0-1.744,1" transform="translate(-184.504 -255.998)" fill="#92e3a9" stroke="#263238" stroke-linecap="round" stroke-linejoin="round" stroke-width="0.2"/>
          <path id="Path_102297" data-name="Path 102297" d="M193.89,263.729a1.963,1.963,0,0,0-.981,1.4" transform="translate(-178.3 -258.104)" fill="#92e3a9" stroke="#263238" stroke-linecap="round" stroke-linejoin="round" stroke-width="0.2"/>
          <path id="Path_102298" data-name="Path 102298" d="M133.574,258.145l-.086-2.14.086,2.14" transform="translate(-128.294 -251.603)" fill="none" stroke="#263238" stroke-linecap="round" stroke-linejoin="round" stroke-width="0.2"/>
          <g id="Group_68408" data-name="Group 68408" transform="translate(0.457 3.685)">
            <path id="Path_102299" data-name="Path 102299" d="M181.7,286.1l1.351-.918-2.2.685" transform="translate(-168.612 -279.842)" fill="none" stroke="#263238" stroke-linecap="round" stroke-linejoin="round" stroke-width="0.2"/>
            <line id="Line_2308" data-name="Line 2308" y1="0.317" x2="0.466" transform="translate(12.128 6.591)" fill="none" stroke="#263238" stroke-linecap="round" stroke-linejoin="round" stroke-width="0.2"/>
            <path id="Path_102300" data-name="Path 102300" d="M162.57,253.548a4.437,4.437,0,0,0-1.435.846c-1.113,1-1.712.913-1.712.913" transform="translate(-150.576 -253.221)" fill="none" stroke="#263238" stroke-linecap="round" stroke-linejoin="round" stroke-width="0.2"/>
            <path id="Path_102301" data-name="Path 102301" d="M183.586,251.862a3.783,3.783,0,0,0-.5.087" transform="translate(-170.488 -251.802)" fill="none" stroke="#263238" stroke-linecap="round" stroke-linejoin="round" stroke-width="0.2"/>
            <path id="Path_102302" data-name="Path 102302" d="M159.144,256.365a7.385,7.385,0,0,1-1.883,1.256" transform="translate(-148.757 -255.592)" fill="none" stroke="#263238" stroke-linecap="round" stroke-linejoin="round" stroke-width="0.2"/>
            <path id="Path_102303" data-name="Path 102303" d="M104.836,255.843a.681.681,0,0,0-.167.4" transform="translate(-104.498 -255.153)" fill="none" stroke="#263238" stroke-linecap="round" stroke-linejoin="round" stroke-width="0.2"/>
            <path id="Path_102304" data-name="Path 102304" d="M109.647,251.66l-.4.029a2.194,2.194,0,0,0-.771-.2,1.17,1.17,0,0,0-.47.3" transform="translate(-107.307 -251.486)" fill="none" stroke="#263238" stroke-linecap="round" stroke-linejoin="round" stroke-width="0.2"/>
            <path id="Path_102305" data-name="Path 102305" d="M104.191,251.862a1.014,1.014,0,0,0-.6.656" transform="translate(-103.592 -251.802)" fill="none" stroke="#263238" stroke-linecap="round" stroke-linejoin="round" stroke-width="0.2"/>
            <path id="Path_102306" data-name="Path 102306" d="M184.686,303.37s-.4,2.74-.585,3.586-.423,2.931-.423,2.931a4.322,4.322,0,0,1,.937-.242,1.054,1.054,0,0,1,.665.06,4.165,4.165,0,0,0,0-2.387A36.352,36.352,0,0,1,184.686,303.37Z" transform="translate(-170.989 -295.149)" fill="#2b67b8" stroke="#263238" stroke-linecap="round" stroke-linejoin="round" stroke-width="0.2"/>
          </g>
        </g>
        <g id="Group_68410" data-name="Group 68410" transform="translate(0 44.554)">
          <path id="Path_102307" data-name="Path 102307" d="M85.7,459.638s.191.907.382,1,1.1.286,1.193.525-.859.668-1.479.764a4.593,4.593,0,0,1-1.861-.239c-.143-.1-.477-.573-.907-.716s-.954-.334-.859-.907a8.215,8.215,0,0,1,.62-1.622,3.088,3.088,0,0,1,1.956.048C85.793,458.874,85.7,459.638,85.7,459.638Z" transform="translate(-82.155 -458.309)" fill="#2b67b8" stroke="#263238" stroke-linecap="round" stroke-linejoin="round" stroke-width="0.2"/>
          <path id="Path_102308" data-name="Path 102308" d="M85.793,468.266c.62-.1,1.574-.525,1.479-.764a.2.2,0,0,0-.041-.058,1.894,1.894,0,0,1-1.559-.045c-.644-.358-.859-1.145-1.718-1.432a4.189,4.189,0,0,0-1.64-.087,3.257,3.257,0,0,0-.148.524c-.1.573.429.763.859.907s.764.62.907.716A4.594,4.594,0,0,0,85.793,468.266Z" transform="translate(-82.155 -464.647)" fill="#fff" stroke="#263238" stroke-linecap="round" stroke-linejoin="round" stroke-width="0.2"/>
          <path id="Path_102309" data-name="Path 102309" d="M85.669,470.983c-.525-.239-1-.859-1.766-1.336a1.456,1.456,0,0,0-1.555.129c.109.332.5.474.84.586.43.143.764.62.907.716a4.594,4.594,0,0,0,1.861.239,3.009,3.009,0,0,0,.374-.085A6.208,6.208,0,0,1,85.669,470.983Z" transform="translate(-82.317 -467.698)" fill="#263238" stroke="#263238" stroke-linecap="round" stroke-linejoin="round" stroke-width="0.2"/>
        </g>
        <path id="Path_102310" data-name="Path 102310" d="M173.237,227.143l-.856.6a6.772,6.772,0,0,0-1.883-.885c-.771-.143-1.17-.171-1.17-.171l.6-1.056a2.787,2.787,0,0,0,.97-1.256c.257-.77.514-1.084,1.084-.8s.8,1.427.8,2.14A3.094,3.094,0,0,0,173.237,227.143Z" transform="translate(-155.516 -216.127)" fill="#fff" stroke="#263238" stroke-linecap="round" stroke-linejoin="round" stroke-width="0.2"/>
        <g id="Group_68411" data-name="Group 68411" transform="translate(12.984 3.885)">
          <path id="Path_102311" data-name="Path 102311" d="M169.324,203.517a5.31,5.31,0,0,1,.542.97,1.7,1.7,0,0,1-.2.771,6.134,6.134,0,0,1,.6,1.027c.029.2-.343.571-.343.571a4.839,4.839,0,0,0,.2,1.027.759.759,0,0,1,.086.742c-.143.257-.342.428-.942.514a.982.982,0,0,1-1.2-.8c-.114-.6-.114-1.883-.2-2.055s-.485-.571-.685-.257a.881.881,0,0,0,.086.913.911.911,0,0,0,.4.4l-.628.314a1.7,1.7,0,0,1-1.2.057,1.132,1.132,0,0,1-.628-.6c-.029-.086-.314-.8-.4-.942a4.125,4.125,0,0,1-.713-2c-.029-1,1.17-2.14,2.711-2.454a4.077,4.077,0,0,1,2.6.4c.342.029,0-.285.285-.086S170.038,203.346,169.324,203.517Z" transform="translate(-164.102 -201.638)" fill="#fff" stroke="#263238" stroke-linecap="round" stroke-linejoin="round" stroke-width="0.2"/>
          <path id="Path_102312" data-name="Path 102312" d="M169.924,206.856s.031-.032.075-.08c-.115.015-.462.062-.674.109-.257.057-.371.828-.6.628s-.342-1.883-.4-1.969.2-.371.2-.371a2.336,2.336,0,0,0,.4-.77c0-.228-.4-.485-.257-.542s.656-.342.656-.342c.714-.171.656-1.284.371-1.484s.057.114-.285.086a4.077,4.077,0,0,0-2.6-.4c-1.541.314-2.739,1.455-2.711,2.454a4.125,4.125,0,0,0,.713,2c.086.143.371.856.4.942a1.132,1.132,0,0,0,.628.6,1.7,1.7,0,0,0,1.2-.057l.628-.314a.911.911,0,0,1-.4-.4.881.881,0,0,1-.086-.913c.2-.314.6.086.685.257s.086,1.455.2,2.055a.982.982,0,0,0,1.2.8c.6-.086.8-.257.942-.514a.759.759,0,0,0-.086-.742A4.837,4.837,0,0,1,169.924,206.856Z" transform="translate(-164.102 -201.638)" fill="#263238" stroke="#263238" stroke-linecap="round" stroke-linejoin="round" stroke-width="0.2"/>
          <path id="Path_102313" data-name="Path 102313" d="M197.974,221.246a.411.411,0,0,0-.371.228" transform="translate(-192.295 -218.139)" fill="none" stroke="#263238" stroke-linecap="round" stroke-linejoin="round" stroke-width="0.2"/>
          <ellipse id="Ellipse_2495" data-name="Ellipse 2495" cx="0.114" cy="0.314" rx="0.114" ry="0.314" transform="translate(5.337 3.449)" fill="#263238" stroke="rgba(0,0,0,0)" stroke-width="0.2"/>
          <path id="Path_102314" data-name="Path 102314" d="M197.567,238.166s-.485.171-.685-.171" transform="translate(-191.688 -232.234)" fill="none" stroke="#fff" stroke-linecap="round" stroke-linejoin="round" stroke-width="0.2"/>
        </g>
        <path id="Path_102315" data-name="Path 102315" d="M165.172,241.172a13.647,13.647,0,0,1,3.8,1.084l.1.039a.87.87,0,0,0-.152-.353,3.89,3.89,0,0,0-1.4-1.056,4.9,4.9,0,0,0-1.769-.371c-.2,0-.777.53-.912.657Z" transform="translate(-151.73 -230.471)" fill="#2b67b8" stroke="#263238" stroke-linecap="round" stroke-linejoin="round" stroke-width="0.2"/>
      </g>
    </g>
  </g>
</svg>
