<svg id="Component_626_2" data-name="Component 626 – 2" xmlns="http://www.w3.org/2000/svg" width="24" height="24" viewBox="0 0 24 24">
  <g id="Group_69014" data-name="Group 69014" transform="translate(-24 -601)">
    <g id="Group_69012" data-name="Group 69012" transform="translate(0 114)">
      <rect id="Rectangle_8336" data-name="Rectangle 8336" width="24" height="24" transform="translate(24 487)" fill="none"/>
    </g>
  </g>
  <path id="exit_1_" data-name="exit (1)" d="M8.961,17.428H7.087v3.748A2.814,2.814,0,0,0,9.9,23.987H21.189A2.814,2.814,0,0,0,24,21.176V2.811A2.814,2.814,0,0,0,21.189,0H9.9A2.814,2.814,0,0,0,7.087,2.811V6.559H8.961V2.811A.938.938,0,0,1,9.9,1.874H21.189a.938.938,0,0,1,.937.937V21.176a.938.938,0,0,1-.937.937H9.9a.938.938,0,0,1-.937-.937ZM4.417,7.576,5.742,8.9,3.587,11.057h12.12v1.874H3.587l2.155,2.155L4.417,16.411,0,11.994Zm0,0" transform="translate(0)" fill="#5d5d5d"/>
</svg>
