<svg id="password_2_" data-name="password (2)" xmlns="http://www.w3.org/2000/svg" width="100" height="97.044" viewBox="0 0 100 97.044">
  <g id="Group_68898" data-name="Group 68898">
    <path id="Path_102694" data-name="Path 102694" d="M25.548,354.991a1.434,1.434,0,0,0-1.952-.514l-3.574,2.075v-4.129a1.417,1.417,0,0,0-2.835,0v4.129l-3.574-2.075a1.427,1.427,0,1,0-1.438,2.465l3.595,2.1-3.595,2.1a1.427,1.427,0,0,0,1.438,2.465l3.574-2.075v4.129a1.417,1.417,0,0,0,2.835,0v-4.129L23.6,363.6a1.427,1.427,0,0,0,1.438-2.465l-3.595-2.1,3.595-2.1A1.421,1.421,0,0,0,25.548,354.991Z" transform="translate(-9.114 -280.379)" fill="#4cb1ff"/>
    <path id="Path_102695" data-name="Path 102695" d="M143.161,362.985a1.434,1.434,0,0,0,1.952.514l3.574-2.075v4.129a1.417,1.417,0,0,0,2.835,0v-4.129L155.1,363.5a1.427,1.427,0,1,0,1.438-2.465l-3.595-2.1,3.595-2.1a1.427,1.427,0,0,0-1.438-2.465l-3.574,2.075v-4.129a1.417,1.417,0,1,0-2.835,0v4.129l-3.574-2.054a1.427,1.427,0,1,0-1.438,2.465l3.595,2.1-3.595,2.075A1.434,1.434,0,0,0,143.161,362.985Z" transform="translate(-113.601 -280.3)" fill="#4cb1ff"/>
    <path id="Path_102696" data-name="Path 102696" d="M131.5,457.895V460.4a1.1,1.1,0,0,0,1.089,1.089h16.824A1.1,1.1,0,0,0,150.5,460.4v-2.506a1.1,1.1,0,0,0-1.089-1.089H132.589A1.083,1.083,0,0,0,131.5,457.895Z" transform="translate(-104.487 -364.445)" fill="#4cb1ff"/>
    <path id="Path_102697" data-name="Path 102697" d="M176.952,30.594h-.123V25.007c0-9.717-7.95-17.975-17.646-17.81a17.4,17.4,0,0,0-17.071,17.358v.534a1.464,1.464,0,0,0,1.459,1.459h4.663a1.464,1.464,0,0,0,1.458-1.459v-.164A10.018,10.018,0,0,1,158.834,14.8a9.776,9.776,0,0,1,10.394,9.737v6.039h-14.38v.021H141.558a4.583,4.583,0,0,0-4.458,4.56V60.422A4.585,4.585,0,0,0,141.681,65h35.251a4.585,4.585,0,0,0,4.581-4.581V35.175A4.555,4.555,0,0,0,176.952,30.594ZM162.038,48.939a.987.987,0,0,0-.452.924c.021,1.849.021,3.7,0,5.567h0a1.949,1.949,0,0,1-1.048,1.869,2.171,2.171,0,0,1-3.246-1.869V49.843a.969.969,0,0,0-.411-.883,4.221,4.221,0,0,1-1.4-5.218,4.319,4.319,0,0,1,8.258,1.705A3.912,3.912,0,0,1,162.038,48.939Z" transform="translate(-108.936 -7.194)" fill="#4cb1ff"/>
    <path id="Path_102698" data-name="Path 102698" d="M262.9,457.895V460.4a1.1,1.1,0,0,0,1.089,1.089h16.824A1.1,1.1,0,0,0,281.9,460.4v-2.506a1.1,1.1,0,0,0-1.089-1.089H263.989A1.1,1.1,0,0,0,262.9,457.895Z" transform="translate(-208.894 -364.445)" fill="#4cb1ff"/>
    <path id="Path_102699" data-name="Path 102699" d="M274.561,362.985a1.434,1.434,0,0,0,1.952.514l3.574-2.075v4.129a1.417,1.417,0,0,0,2.835,0v-4.129L286.5,363.5a1.427,1.427,0,1,0,1.438-2.465l-3.595-2.1,3.595-2.1a1.427,1.427,0,0,0-1.438-2.465l-3.574,2.075v-4.129a1.417,1.417,0,1,0-2.835,0v4.129l-3.574-2.075a1.427,1.427,0,1,0-1.438,2.465l3.595,2.1-3.595,2.1A1.434,1.434,0,0,0,274.561,362.985Z" transform="translate(-218.008 -280.3)" fill="#4cb1ff"/>
    <path id="Path_102700" data-name="Path 102700" d="M412.213,456.806H395.389a1.1,1.1,0,0,0-1.089,1.089V460.4a1.1,1.1,0,0,0,1.089,1.089h16.824A1.1,1.1,0,0,0,413.3,460.4v-2.506A1.1,1.1,0,0,0,412.213,456.806Z" transform="translate(-313.302 -364.445)" fill="#4cb1ff"/>
    <path id="Path_102701" data-name="Path 102701" d="M1.089,461.49H17.913A1.1,1.1,0,0,0,19,460.4v-2.506a1.1,1.1,0,0,0-1.089-1.089H1.089A1.1,1.1,0,0,0,0,457.895V460.4A1.1,1.1,0,0,0,1.089,461.49Z" transform="translate(0 -364.445)" fill="#4cb1ff"/>
    <path id="Path_102702" data-name="Path 102702" d="M406.026,362.985a1.434,1.434,0,0,0,1.952.514l3.574-2.075v4.129a1.417,1.417,0,0,0,2.835,0v-4.129l3.574,2.075a1.427,1.427,0,1,0,1.438-2.465l-3.595-2.1,3.595-2.1a1.427,1.427,0,0,0-1.438-2.465l-3.574,2.075v-4.129a1.417,1.417,0,1,0-2.835,0v4.129l-3.574-2.075a1.427,1.427,0,0,0-1.438,2.465l3.595,2.1-3.595,2.1A1.416,1.416,0,0,0,406.026,362.985Z" transform="translate(-322.46 -280.3)" fill="#4cb1ff"/>
  </g>
</svg>
