<svg id="Component_614_2" data-name="Component 614 – 2" xmlns="http://www.w3.org/2000/svg" width="24" height="24" viewBox="0 0 24 24">
  <g id="Group_68902" data-name="Group 68902" transform="translate(0 5)">
    <g id="eye" transform="translate(0 0)">
      <path id="Path_19210" data-name="Path 19210" d="M12,98.725c-4.585,0-8.744,2.509-11.812,6.584a.95.95,0,0,0,0,1.134c3.068,4.08,7.227,6.589,11.812,6.589s8.744-2.509,11.812-6.584a.95.95,0,0,0,0-1.134C20.744,101.234,16.585,98.725,12,98.725Zm.329,12.19a5.048,5.048,0,1,1,4.708-4.708A5.051,5.051,0,0,1,12.329,110.915Zm-.152-2.327a2.718,2.718,0,1,1,2.538-2.538A2.714,2.714,0,0,1,12.177,108.588Z" transform="translate(0 -98.725)" fill="#5d5d5d"/>
    </g>
    <line id="Line_501" data-name="Line 501" y1="20" transform="translate(18.642 14.642) rotate(135)" fill="none" stroke="#fff" stroke-width="4"/>
    <line id="Line_502" data-name="Line 502" x2="14" y2="14" transform="translate(4.5 0.5)" fill="none" stroke="#5d5d5d" stroke-linecap="round" stroke-width="2"/>
  </g>
  <g id="Group_69056" data-name="Group 69056" transform="translate(-660 -484)">
    <g id="Group_69055" data-name="Group 69055">
      <g id="Group_69045" data-name="Group 69045" transform="translate(722 202) rotate(90)">
        <rect id="Rectangle_8228" data-name="Rectangle 8228" width="24" height="24" transform="translate(282 38)" fill="none"/>
      </g>
    </g>
  </g>
</svg>
